<svg width="16" height="16" viewBox="0 0 16 16" fill="none" xmlns="http://www.w3.org/2000/svg">
<mask id="path-1-inside-1_1196_37802" fill="color">
<path d="M9.84956 15H5.98793C2.49316 15 1 13.5069 1 10.0121V6.15047C1 2.6557 2.49316 1.16254 5.98793 1.16254H7.27514C7.53902 1.16254 7.75784 1.38136 7.75784 1.64524C7.75784 1.90912 7.53902 2.12794 7.27514 2.12794H5.98793C3.02092 2.12794 1.96541 3.18345 1.96541 6.15047V10.0121C1.96541 12.9791 3.02092 14.0346 5.98793 14.0346H9.84956C12.8166 14.0346 13.8721 12.9791 13.8721 10.0121V8.72488C13.8721 8.46101 14.0909 8.24218 14.3548 8.24218C14.6187 8.24218 14.8375 8.46101 14.8375 8.72488V10.0121C14.8375 13.5069 13.3443 15 9.84956 15Z"></path>
</mask>
<path d="M9.84956 15H5.98793C2.49316 15 1 13.5069 1 10.0121V6.15047C1 2.6557 2.49316 1.16254 5.98793 1.16254H7.27514C7.53902 1.16254 7.75784 1.38136 7.75784 1.64524C7.75784 1.90912 7.53902 2.12794 7.27514 2.12794H5.98793C3.02092 2.12794 1.96541 3.18345 1.96541 6.15047V10.0121C1.96541 12.9791 3.02092 14.0346 5.98793 14.0346H9.84956C12.8166 14.0346 13.8721 12.9791 13.8721 10.0121V8.72488C13.8721 8.46101 14.0909 8.24218 14.3548 8.24218C14.6187 8.24218 14.8375 8.46101 14.8375 8.72488V10.0121C14.8375 13.5069 13.3443 15 9.84956 15Z" fill="#212121"></path>
<path d="M9.84956 14H5.98793V16H9.84956V14ZM5.98793 14C4.35534 14 3.42841 13.6474 2.89053 13.1095C2.35266 12.5716 2 11.6447 2 10.0121H0C0 11.8743 0.393924 13.4413 1.47632 14.5237C2.55872 15.6061 4.12576 16 5.98793 16V14ZM2 10.0121V6.15047H0V10.0121H2ZM2 6.15047C2 4.51787 2.35266 3.59095 2.89053 3.05307C3.42841 2.51519 4.35534 2.16254 5.98793 2.16254V0.162537C4.12576 0.162537 2.55872 0.556461 1.47632 1.63886C0.393924 2.72125 0 4.28829 0 6.15047H2ZM5.98793 2.16254H7.27514V0.162537H5.98793V2.16254ZM7.27514 2.16254C6.98673 2.16254 6.75784 1.93365 6.75784 1.64524H8.75784C8.75784 0.829077 8.0913 0.162537 7.27514 0.162537V2.16254ZM6.75784 1.64524C6.75784 1.35683 6.98673 1.12794 7.27514 1.12794V3.12794C8.0913 3.12794 8.75784 2.4614 8.75784 1.64524H6.75784ZM7.27514 1.12794H5.98793V3.12794H7.27514V1.12794ZM5.98793 1.12794C4.43387 1.12794 3.08244 1.39396 2.15693 2.31947C1.23143 3.24497 0.965406 4.59641 0.965406 6.15047H2.96541C2.96541 4.73751 3.22714 4.07768 3.57115 3.73368C3.91515 3.38968 4.57498 3.12794 5.98793 3.12794V1.12794ZM0.965406 6.15047V10.0121H2.96541V6.15047H0.965406ZM0.965406 10.0121C0.965406 11.5662 1.23143 12.9176 2.15693 13.8431C3.08244 14.7686 4.43387 15.0346 5.98793 15.0346V13.0346C4.57498 13.0346 3.91515 12.7729 3.57115 12.4289C3.22714 12.0849 2.96541 11.425 2.96541 10.0121H0.965406ZM5.98793 15.0346H9.84956V13.0346H5.98793V15.0346ZM9.84956 15.0346C11.4036 15.0346 12.755 14.7686 13.6806 13.8431C14.6061 12.9176 14.8721 11.5662 14.8721 10.0121H12.8721C12.8721 11.425 12.6103 12.0849 12.2663 12.4289C11.9223 12.7729 11.2625 13.0346 9.84956 13.0346V15.0346ZM14.8721 10.0121V8.72488H12.8721V10.0121H14.8721ZM14.8721 8.72488C14.8721 9.01329 14.6432 9.24218 14.3548 9.24218V7.24218C13.5386 7.24218 12.8721 7.90872 12.8721 8.72488H14.8721ZM14.3548 9.24218C14.0664 9.24218 13.8375 9.01329 13.8375 8.72488H15.8375C15.8375 7.90872 15.1709 7.24218 14.3548 7.24218V9.24218ZM13.8375 8.72488V10.0121H15.8375V8.72488H13.8375ZM13.8375 10.0121C13.8375 11.6447 13.4848 12.5716 12.947 13.1095C12.4091 13.6474 11.4821 14 9.84956 14V16C11.7117 16 13.2788 15.6061 14.3612 14.5237C15.4436 13.4413 15.8375 11.8743 15.8375 10.0121H13.8375Z" fill="color" mask="url(#path-1-inside-1_1196_37802)"></path>
<mask id="path-3-inside-2_1196_37802" fill="color">
<path d="M5.66598 11.7434C5.27338 11.7434 4.91297 11.6018 4.64909 11.3443C4.33372 11.029 4.19857 10.572 4.26936 10.0893L4.54611 8.15205C4.5976 7.77876 4.84217 7.29606 5.10605 7.03218L10.1776 1.96058C11.4584 0.679807 12.7585 0.679807 14.0393 1.96058C14.7408 2.66211 15.0562 3.37651 14.9918 4.09091C14.9339 4.67015 14.6249 5.23652 14.0393 5.81577L8.96767 10.8874C8.70379 11.1512 8.22109 11.3958 7.8478 11.4473L5.91055 11.7241C5.82688 11.7434 5.74321 11.7434 5.66598 11.7434ZM10.8599 2.6428L5.78827 7.7144C5.66598 7.83668 5.52439 8.11987 5.49865 8.28721L5.2219 10.2245C5.19615 10.4111 5.23477 10.5656 5.33131 10.6621C5.42785 10.7586 5.58231 10.7973 5.76896 10.7715L7.70621 10.4948C7.87354 10.469 8.16317 10.3274 8.27901 10.2051L13.3506 5.13355C13.769 4.7152 13.9878 4.34191 14.02 3.99437C14.0586 3.57603 13.8398 3.13194 13.3506 2.63636C12.3208 1.6066 11.6129 1.89622 10.8599 2.6428Z"></path>
</mask>
<path d="M5.66598 11.7434C5.27338 11.7434 4.91297 11.6018 4.64909 11.3443C4.33372 11.029 4.19857 10.572 4.26936 10.0893L4.54611 8.15205C4.5976 7.77876 4.84217 7.29606 5.10605 7.03218L10.1776 1.96058C11.4584 0.679807 12.7585 0.679807 14.0393 1.96058C14.7408 2.66211 15.0562 3.37651 14.9918 4.09091C14.9339 4.67015 14.6249 5.23652 14.0393 5.81577L8.96767 10.8874C8.70379 11.1512 8.22109 11.3958 7.8478 11.4473L5.91055 11.7241C5.82688 11.7434 5.74321 11.7434 5.66598 11.7434ZM10.8599 2.6428L5.78827 7.7144C5.66598 7.83668 5.52439 8.11987 5.49865 8.28721L5.2219 10.2245C5.19615 10.4111 5.23477 10.5656 5.33131 10.6621C5.42785 10.7586 5.58231 10.7973 5.76896 10.7715L7.70621 10.4948C7.87354 10.469 8.16317 10.3274 8.27901 10.2051L13.3506 5.13355C13.769 4.7152 13.9878 4.34191 14.02 3.99437C14.0586 3.57603 13.8398 3.13194 13.3506 2.63636C12.3208 1.6066 11.6129 1.89622 10.8599 2.6428Z" fill="#212121"></path>
<path d="M4.64909 11.3443L3.94193 12.0515L3.95076 12.0601L4.64909 11.3443ZM4.26936 10.0893L5.25878 10.2344L5.25931 10.2307L4.26936 10.0893ZM4.54611 8.15205L5.53607 8.29347L5.53673 8.28869L4.54611 8.15205ZM5.10605 7.03218L4.39894 6.32507H4.39894L5.10605 7.03218ZM10.1776 1.96058L10.8848 2.66769L10.1776 1.96058ZM14.9918 4.09091L15.9869 4.19042L15.9878 4.18064L14.9918 4.09091ZM14.0393 5.81577L13.3361 5.10475L13.3322 5.10866L14.0393 5.81577ZM8.96767 10.8874L9.67478 11.5945H9.67478L8.96767 10.8874ZM7.8478 11.4473L7.71116 10.4567L7.70638 10.4574L7.8478 11.4473ZM5.91055 11.7241L5.76913 10.7341L5.72708 10.7401L5.68569 10.7497L5.91055 11.7241ZM10.8599 2.6428L10.1558 1.93266L10.1528 1.93569L10.8599 2.6428ZM5.78827 7.7144L6.49537 8.42151L5.78827 7.7144ZM5.49865 8.28721L4.51022 8.13514L4.5087 8.14579L5.49865 8.28721ZM5.2219 10.2245L4.23193 10.083L4.23127 10.0878L5.2219 10.2245ZM5.76896 10.7715L5.9056 11.7622L5.91038 11.7615L5.76896 10.7715ZM7.70621 10.4948L7.84764 11.4848L7.85826 11.4831L7.70621 10.4948ZM8.27901 10.2051L7.57191 9.49804L7.56235 9.50759L7.55306 9.5174L8.27901 10.2051ZM14.02 3.99437L15.0157 4.08657L15.0157 4.08629L14.02 3.99437ZM13.3506 2.63636L14.0623 1.93388L14.0577 1.92926L13.3506 2.63636ZM5.66598 10.7434C5.51608 10.7434 5.41185 10.6914 5.34741 10.6285L3.95076 12.0601C4.41408 12.5121 5.03069 12.7434 5.66598 12.7434V10.7434ZM5.35619 10.6372C5.29278 10.5738 5.22768 10.4465 5.25878 10.2344L3.27995 9.94418C3.16946 10.6975 3.37467 11.4841 3.94198 12.0514L5.35619 10.6372ZM5.25931 10.2307L5.53606 8.29347L3.55616 8.01063L3.27941 9.94788L5.25931 10.2307ZM5.53673 8.28869C5.55766 8.13694 5.69942 7.85302 5.81315 7.73929L4.39894 6.32507C3.98492 6.73909 3.63754 7.42058 3.55549 8.01541L5.53673 8.28869ZM5.81315 7.73929L10.8848 2.66769L9.47054 1.25347L4.39894 6.32507L5.81315 7.73929ZM10.8848 2.66769C11.4135 2.13898 11.8193 2 12.1085 2C12.3976 2 12.8035 2.13898 13.3322 2.66769L14.7464 1.25347C13.9943 0.501411 13.1097 5.96046e-08 12.1085 5.96046e-08C11.1072 5.96046e-08 10.2226 0.501411 9.47054 1.25347L10.8848 2.66769ZM13.3322 2.66769C13.9041 3.2396 14.0249 3.67881 13.9958 4.00118L15.9878 4.18064C16.0874 3.07421 15.5775 2.08461 14.7464 1.25347L13.3322 2.66769ZM13.9968 3.99141C13.9695 4.26393 13.8194 4.62679 13.3361 5.10476L14.7425 6.52677C15.4305 5.84626 15.8982 5.07637 15.9868 4.19041L13.9968 3.99141ZM13.3322 5.10866L8.26056 10.1803L9.67478 11.5945L14.7464 6.52287L13.3322 5.10866ZM8.26056 10.1803C8.14683 10.294 7.86291 10.4358 7.71116 10.4567L7.98444 12.4379C8.57928 12.3559 9.26076 12.0085 9.67478 11.5945L8.26056 10.1803ZM7.70638 10.4574L5.76913 10.7341L6.05197 12.714L7.98922 12.4373L7.70638 10.4574ZM5.68569 10.7497C5.7003 10.7463 5.71161 10.7445 5.71856 10.7436C5.72542 10.7427 5.72871 10.7426 5.72713 10.7427C5.7254 10.7428 5.72038 10.743 5.70994 10.7432C5.70479 10.7433 5.6988 10.7433 5.6914 10.7433C5.68379 10.7434 5.67594 10.7434 5.66598 10.7434V12.7434C5.72802 12.7434 5.92372 12.7473 6.13541 12.6984L5.68569 10.7497ZM10.1528 1.93569L5.08116 7.00729L6.49537 8.42151L11.567 3.34991L10.1528 1.93569ZM5.08116 7.00729C4.91236 7.17609 4.78977 7.38394 4.71417 7.53401C4.63849 7.68426 4.54586 7.90381 4.51027 8.13515L6.48702 8.43926C6.48504 8.45213 6.48303 8.46217 6.48151 8.46907C6.47998 8.47605 6.47869 8.481 6.47793 8.48379C6.47649 8.48903 6.4762 8.48926 6.47794 8.48444C6.47959 8.47987 6.48236 8.47273 6.4864 8.46345C6.49041 8.45424 6.49511 8.44418 6.50033 8.43381C6.50556 8.42343 6.51082 8.41371 6.51579 8.40511C6.5208 8.39643 6.5248 8.39011 6.52737 8.38624C6.53009 8.38216 6.52992 8.38276 6.52637 8.38726C6.52448 8.38965 6.52116 8.39374 6.51635 8.39921C6.51159 8.40463 6.50462 8.41226 6.49537 8.42151L5.08116 7.00729ZM4.5087 8.14579L4.23195 10.083L6.21185 10.3659L6.48859 8.42863L4.5087 8.14579ZM4.23127 10.0878C4.18013 10.4586 4.22965 10.9747 4.6242 11.3692L6.03842 9.955C6.13566 10.0522 6.18179 10.1582 6.20089 10.2345C6.21909 10.3074 6.21355 10.3536 6.21252 10.3611L4.23127 10.0878ZM4.6242 11.3692C5.01875 11.7638 5.5348 11.8133 5.9056 11.7621L5.63232 9.7809C5.63982 9.77986 5.68605 9.77432 5.75888 9.79253C5.83526 9.81162 5.94117 9.85776 6.03842 9.955L4.6242 11.3692ZM5.91038 11.7615L7.84763 11.4847L7.56479 9.50482L5.62754 9.78157L5.91038 11.7615ZM7.85826 11.4831C8.08694 11.448 8.30663 11.3568 8.45913 11.2806C8.60591 11.2072 8.82862 11.079 9.00497 10.8929L7.55306 9.5174C7.56482 9.505 7.57481 9.49547 7.58219 9.48875C7.58964 9.48197 7.59553 9.47705 7.59943 9.47389C7.60686 9.46789 7.60992 9.46601 7.60738 9.46772C7.60512 9.46923 7.60002 9.47251 7.59205 9.4771C7.58419 9.48162 7.57493 9.48662 7.56471 9.49173C7.55449 9.49684 7.54438 9.50153 7.53493 9.5056C7.52541 9.5097 7.51786 9.51261 7.51276 9.51444C7.50742 9.51635 7.50701 9.51627 7.51155 9.51503C7.514 9.51437 7.5186 9.51317 7.52524 9.51172C7.53179 9.51029 7.54154 9.50834 7.55415 9.5064L7.85826 11.4831ZM8.98612 10.9123L14.0577 5.84065L12.6435 4.42644L7.57191 9.49804L8.98612 10.9123ZM14.0577 5.84065C14.5371 5.36127 14.9515 4.77975 15.0157 4.08657L13.0242 3.90217C13.0246 3.89842 13.0223 3.93828 12.9678 4.03103C12.9119 4.12622 12.8123 4.25763 12.6435 4.42644L14.0577 5.84065ZM15.0157 4.08629C15.095 3.22751 14.6261 2.50509 14.0623 1.93389L12.6389 3.33883C12.8356 3.53815 12.9372 3.68704 12.9862 3.78641C13.0095 3.83374 13.0184 3.86473 13.0218 3.88093C13.025 3.89601 13.0242 3.90191 13.0242 3.90245L15.0157 4.08629ZM14.0577 1.92926C13.4442 1.31571 12.7328 0.901483 11.9093 0.977707C11.1422 1.04871 10.5624 1.52955 10.1558 1.93266L11.5639 3.35293C11.9104 3.00947 12.061 2.97221 12.0936 2.9692C12.0955 2.96902 12.1247 2.96363 12.2035 3.00108C12.293 3.04362 12.439 3.13893 12.6435 3.34347L14.0577 1.92926Z" fill="color" mask="url(#path-3-inside-2_1196_37802)"></path>
<path d="M12.971 6.68464C12.926 6.68464 12.8809 6.67821 12.8423 6.66534C11.1496 6.18907 9.80449 4.84394 9.32822 3.15126C9.25742 2.89382 9.40545 2.62994 9.66289 2.55271C9.92034 2.48191 10.1842 2.62994 10.255 2.88738C10.6412 4.25826 11.7289 5.34595 13.0997 5.73211C13.3572 5.80291 13.5052 6.07322 13.4344 6.33066C13.3765 6.54949 13.1834 6.68464 12.971 6.68464Z" fill="color"></path>
</svg>