<svg width="16" height="16" viewBox="0 0 16 16" fill="color" xmlns="http://www.w3.org/2000/svg">
<path d="M15 4.23077C15 3.73833 14.8089 3.26605 14.4688 2.91784C14.1288 2.56963 13.6675 2.37401 13.1865 2.37401H12.2617V1.37135C12.2617 1.27286 12.2234 1.17841 12.1554 1.10877C12.0874 1.03912 11.9952 1 11.899 1C11.8028 1 11.7105 1.03912 11.6425 1.10877C11.5745 1.17841 11.5363 1.27286 11.5363 1.37135V2.37401H4.46373V1.37135C4.46373 1.27286 4.42552 1.17841 4.3575 1.10877C4.28948 1.03912 4.19723 1 4.10104 1C4.00484 1 3.91259 1.03912 3.84457 1.10877C3.77655 1.17841 3.73834 1.27286 3.73834 1.37135V2.37401H2.81347C2.33251 2.37401 1.87125 2.56963 1.53115 2.91784C1.19106 3.26605 1 3.73833 1 4.23077V13.1432C1 13.3871 1.04691 13.6285 1.13804 13.8538C1.22918 14.0791 1.36276 14.2838 1.53115 14.4562C1.69955 14.6286 1.89947 14.7654 2.11949 14.8587C2.33951 14.952 2.57532 15 2.81347 15H13.1865C13.4247 15 13.6605 14.952 13.8805 14.8587C14.1005 14.7654 14.3005 14.6286 14.4688 14.4562C14.6372 14.2838 14.7708 14.0791 14.862 13.8538C14.9531 13.6285 15 13.3871 15 13.1432V4.23077ZM2.81347 3.11671H3.73834V3.82228C3.73834 3.92077 3.77655 4.01523 3.84457 4.08487C3.91259 4.15451 4.00484 4.19363 4.10104 4.19363C4.19723 4.19363 4.28948 4.15451 4.3575 4.08487C4.42552 4.01523 4.46373 3.92077 4.46373 3.82228V3.11671H11.5363V3.82228C11.5363 3.92077 11.5745 4.01523 11.6425 4.08487C11.7105 4.15451 11.8028 4.19363 11.899 4.19363C11.9952 4.19363 12.0874 4.15451 12.1554 4.08487C12.2234 4.01523 12.2617 3.92077 12.2617 3.82228V3.11671H13.1865C13.4751 3.11671 13.7519 3.23408 13.9559 3.44301C14.16 3.65194 14.2746 3.9353 14.2746 4.23077V5.60477H1.72539V4.23077C1.72539 3.9353 1.84003 3.65194 2.04408 3.44301C2.24814 3.23408 2.52489 3.11671 2.81347 3.11671ZM13.1865 14.2573H2.81347C2.52489 14.2573 2.24814 14.1399 2.04408 13.931C1.84003 13.7221 1.72539 13.4387 1.72539 13.1432V6.34748H14.2746V13.1432C14.2746 13.4387 14.16 13.7221 13.9559 13.931C13.7519 14.1399 13.4751 14.2573 13.1865 14.2573Z" fill="color" stroke="color" stroke-width="0.7"></path>
</svg>