<svg width="16" height="16" viewBox="0 0 16 16" fill="color" xmlns="http://www.w3.org/2000/svg">
<path d="M12.0051 14.1297H2.1966C1.90079 14.1297 1.65169 13.8961 1.65169 13.5848V3.77622C1.65169 3.62053 1.52713 3.48041 1.35587 3.48041C1.18461 3.48041 1.06006 3.60496 1.06006 3.77622V13.6003C1.06006 14.2231 1.55827 14.7213 2.18104 14.7213H12.0051C12.1608 14.7213 12.301 14.5968 12.301 14.4255C12.301 14.2542 12.1764 14.1297 12.0051 14.1297Z" fill="color" stroke-width="0.7"></path>
<path d="M13.7385 0.921997H3.91443C3.29167 0.921997 2.79346 1.42021 2.79346 2.04297V11.8671C2.79346 12.4899 3.29167 12.9881 3.91443 12.9881H13.7385C14.3613 12.9881 14.8595 12.4899 14.8595 11.8671V2.04297C14.8595 1.42021 14.3613 0.921997 13.7385 0.921997ZM14.2835 11.8671C14.2835 12.1629 14.0499 12.412 13.7385 12.412H3.91443C3.61862 12.412 3.36951 12.1785 3.36951 11.8671V2.04297C3.36951 1.74716 3.60305 1.49805 3.91443 1.49805H13.7385C14.0344 1.49805 14.2835 1.73159 14.2835 2.04297V11.8671Z" fill="color" stroke-width="0.7"></path>
</svg>