<svg width="416" height="130" viewBox="0 0 416 130" fill="none" xmlns="http://www.w3.org/2000/svg">
<path d="M94.1471 11.4155H112.069C116.495 11.4155 120.081 12.7806 122.831 15.5108C125.58 18.242 126.954 21.8307 126.954 26.2788C126.954 30.6873 125.535 34.2515 122.697 36.9722C119.858 39.693 116.168 41.0525 111.623 41.0525H103.138V54.3978H94.1471V11.4155ZM103.138 18.8023V33.7552H109.657C112.257 33.7552 114.267 33.1147 115.686 31.8345C117.105 30.5533 117.814 28.7118 117.814 26.309C117.814 23.8863 117.109 22.0297 115.7 20.7382C114.29 19.4476 112.287 18.8023 109.687 18.8023H103.138Z" fill="#10847E"/>
<path d="M132.226 54.3976V9.00305H140.74V26.9343H141.277C142.051 25.0475 143.296 23.5739 145.013 22.5107C146.73 21.4484 148.788 20.9173 151.19 20.9173C154.742 20.9173 157.506 21.9899 159.481 24.1342C161.456 26.2795 162.444 29.3173 162.444 33.2485V54.3976H153.781V35.3041C153.781 33.04 153.264 31.323 152.232 30.1513C151.2 28.9796 149.702 28.3937 147.737 28.3937C145.593 28.3937 143.916 29.0447 142.705 30.3447C141.495 31.6456 140.889 33.3786 140.889 35.5428V54.3976H132.226Z" fill="#10847E"/>
<path d="M178.609 54.9032C175.433 54.9032 172.849 54.0004 170.854 52.1928C168.859 50.3862 167.862 47.9928 167.862 45.0145C167.862 42.056 168.959 39.7267 171.152 38.0286C173.345 36.3314 176.486 35.3635 180.574 35.1248L188.524 34.6474V31.9663C188.524 30.5965 188.047 29.5389 187.094 28.7936C186.142 28.0493 184.773 27.6766 182.986 27.6766C179.771 27.6766 177.796 28.6899 177.062 30.7144H169.084C169.362 27.6766 170.796 25.2691 173.385 23.4917C175.976 21.7153 179.334 20.8257 183.462 20.8257C187.789 20.8257 191.138 21.7993 193.51 23.7455C195.881 25.6917 197.067 28.4323 197.067 31.9663V54.3956H188.673V50.1069H188.136C187.283 51.6154 186.012 52.7928 184.326 53.6362C182.638 54.4815 180.733 54.9032 178.609 54.9032ZM181.467 48.3805C183.472 48.3805 185.148 47.8145 186.498 46.6833C187.848 45.5513 188.523 44.1512 188.523 42.4833V40.0701L181.884 40.4871C178.192 40.7456 176.347 42.0663 176.347 44.4494C176.347 45.6607 176.819 46.6192 177.761 47.3239C178.703 48.0286 179.939 48.3805 181.467 48.3805Z" fill="#10847E"/>
<path d="M204.362 54.398V21.5431H212.757V26.7856H213.294C213.73 25.1177 214.727 23.7375 216.285 22.645C217.844 21.5526 219.654 21.0063 221.718 21.0063C223.207 21.0063 224.338 21.146 225.113 21.4233V29.3168C224.2 28.9592 222.83 28.7809 221.005 28.7809C218.603 28.7809 216.673 29.446 215.214 30.7762C213.755 32.1073 213.026 33.914 213.026 36.1979V54.3971H204.362V54.398Z" fill="#10847E"/>
<path d="M230.095 54.3977V21.5428H238.49V26.9042H239.027C239.701 25.0174 240.847 23.5334 242.466 22.4513C244.084 21.3693 245.964 20.8278 248.107 20.8278C250.389 20.8278 252.308 21.3589 253.867 22.4212C255.425 23.4834 256.531 24.9787 257.186 26.9042H257.722C258.496 25.058 259.766 23.5834 261.532 22.4806C263.298 21.3778 265.323 20.8278 267.605 20.8278C270.88 20.8278 273.47 21.8211 275.375 23.807C277.281 25.7929 278.234 28.4731 278.234 31.8495V54.3987H269.571V34.1439C269.571 30.2523 267.745 28.3052 264.094 28.3052C262.347 28.3052 260.947 28.8618 259.896 29.974C258.844 31.0863 258.318 32.5259 258.318 34.2929V54.3987H249.982V33.7863C249.982 32.058 249.506 30.7136 248.554 29.7504C247.601 28.7872 246.271 28.3052 244.564 28.3052C242.878 28.3052 241.488 28.9014 240.397 30.0929C239.305 31.2844 238.759 32.7929 238.759 34.6203V54.3987H230.095V54.3977Z" fill="#10847E"/>
<path d="M314.735 46.7129V54.3978H286.273V11.4155H314.735V19.1005H295.265V29.1382H313.633V36.2571H295.265V46.7119H314.735V46.7129Z" fill="#10847E"/>
<path d="M329.89 54.9032C326.714 54.9032 324.129 54.0004 322.134 52.1928C320.139 50.3862 319.143 47.9928 319.143 45.0145C319.143 42.056 320.239 39.7267 322.432 38.0286C324.625 36.3314 327.766 35.3635 331.855 35.1248L339.804 34.6474V31.9663C339.804 30.5965 339.327 29.5389 338.375 28.7936C337.422 28.0493 336.053 27.6766 334.267 27.6766C331.051 27.6766 329.077 28.6899 328.342 30.7144H320.365C320.643 27.6766 322.077 25.2691 324.666 23.4917C327.256 21.7153 330.615 20.8257 334.743 20.8257C339.07 20.8257 342.419 21.7993 344.79 23.7455C347.162 25.6917 348.348 28.4323 348.348 31.9663V54.3956H339.953V50.1069H339.417C338.563 51.6154 337.292 52.7928 335.606 53.6362C333.919 54.4815 332.013 54.9032 329.89 54.9032ZM332.748 48.3805C334.752 48.3805 336.429 47.8145 337.779 46.6833C339.128 45.5513 339.803 44.1512 339.803 42.4833V40.0701L333.164 40.4871C329.473 40.7456 327.628 42.0663 327.628 44.4494C327.628 45.6607 328.099 46.6192 329.041 47.3239C329.984 48.0286 331.219 48.3805 332.748 48.3805Z" fill="#10847E"/>
<path d="M353.68 31.1938C353.68 28.0759 354.935 25.5693 357.446 23.6721C359.957 21.7759 363.256 20.8278 367.345 20.8278C371.513 20.8278 374.783 21.6721 377.154 23.3598C379.525 25.0476 380.83 27.4608 381.069 30.5985H373.06C372.841 29.5259 372.242 28.6872 371.259 28.0816C370.277 27.4759 368.991 27.1721 367.404 27.1721C365.836 27.1721 364.547 27.4948 363.535 28.141C362.522 28.7863 362.016 29.625 362.016 30.658C362.016 31.4523 362.373 32.1127 363.088 32.6391C363.803 33.1656 364.924 33.5976 366.452 33.9354L372.615 35.2759C375.81 35.9712 378.147 37.0335 379.625 38.4627C381.104 39.892 381.843 41.8288 381.843 44.2713C381.843 47.5288 380.514 50.1496 377.854 52.1345C375.194 54.1204 371.701 55.1138 367.374 55.1138C363.047 55.1138 359.624 54.26 357.103 52.5524C354.582 50.8449 353.173 48.4118 352.875 45.2543H361.33C362.025 47.5977 364.099 48.7694 367.553 48.7694C369.239 48.7694 370.608 48.4468 371.661 47.8005C372.712 47.1552 373.238 46.3071 373.238 45.2543C373.238 44.4401 372.911 43.7798 372.257 43.2731C371.601 42.7665 370.549 42.3543 369.101 42.0363L363.146 40.6958C359.951 40.0005 357.575 38.8741 356.016 37.3156C354.458 35.7561 353.68 33.7155 353.68 31.1938Z" fill="#10847E"/>
<path d="M389.683 66.3422C387.837 66.3422 386.735 66.312 386.378 66.2526V59.2827C386.576 59.3224 387.231 59.3422 388.343 59.3422C389.989 59.3422 391.28 59.0592 392.213 58.4931C393.145 57.9271 393.79 57.029 394.147 55.7969L394.445 54.6054L382.924 21.542H392.48L399.387 46.444H399.924L406.83 21.542H416L404.687 54.9025C403.297 59.112 401.476 62.0714 399.224 63.779C396.97 65.4875 393.791 66.3422 389.683 66.3422Z" fill="#10847E"/>
<path fill-rule="evenodd" clip-rule="evenodd" d="M45.4914 81.9983C43.7197 81.8992 42.0451 80.9398 41.2031 78.9152C40.3658 76.9209 40.6874 74.9926 42.2648 73.4171C44.6532 71.0416 47.0727 68.6614 49.5223 66.3454C50.3304 65.6076 50.4256 65.1576 49.5902 64.3529C45.8139 60.7868 42.0725 57.1557 38.4018 53.4576C37.5626 52.6227 37.1091 52.7811 36.3661 53.5217C33.9843 55.9302 31.5959 58.3104 29.1161 60.5935C26.0187 63.4208 21.2486 61.9444 20.4103 57.9255C20.0539 56.2859 20.5056 54.8076 21.6663 53.65C25.667 49.6972 29.6639 45.7396 33.7542 41.8556C35.7221 39.9877 38.6271 39.9566 40.6242 41.8868C47.6205 48.6349 54.5517 55.3859 61.4858 62.2331C63.4187 64.1284 63.4187 66.9576 61.5188 68.8859C57.5492 72.8699 53.4881 76.7615 49.429 80.6803C48.4889 81.6143 47.265 82.0303 45.4914 81.9983Z" fill="#10847E"/>
<path fill-rule="evenodd" clip-rule="evenodd" d="M75.4134 27.1962C75.3456 32.4038 73.9925 37.2576 71.062 41.5623C70.2549 42.752 70.4472 43.3322 71.4146 44.1671C72.8356 45.3897 74.1207 46.768 75.4408 48.0869C77.5048 50.2105 77.5727 53.103 75.668 55.1586C73.7954 57.12 70.5754 57.4086 68.5463 55.5445C65.3537 52.6218 62.2233 49.568 59.2239 46.4463C57.2589 44.4256 57.5182 41.5614 59.7086 39.4095C62.6127 36.5491 64.3533 33.2066 64.9303 29.1868C66.1929 20.1566 59.2239 11.316 50.0712 10.3197C44.1375 9.67822 39.0751 11.3801 34.8198 15.5915C26.3083 23.916 17.7656 32.2085 9.25034 40.5321C7.96329 41.8208 6.47823 42.5906 4.64241 42.3671C2.57746 42.1095 1.02922 41.0491 0.320165 39.0246C-0.388894 36.9972 0.0966964 35.1972 1.6091 33.7189C5.93135 29.4774 10.2838 25.266 14.6371 21.0217C19.279 16.4905 23.8558 11.8962 28.5939 7.46028C43.9424 -6.87469 69.4459 0.483846 74.6327 20.7019C75.1221 22.8226 75.4134 24.9793 75.4134 27.1962Z" fill="#10847E"/>
<path fill-rule="evenodd" clip-rule="evenodd" d="M114.671 66C99.9409 66 88 77.9408 88 92.6706C88 107.4 99.9409 119.341 114.671 119.341H171.338L184.45 129.18C185.135 129.715 185.966 129.926 186.756 129.767C187.547 129.609 188.231 129.094 188.654 128.338C189.077 127.581 189.205 126.647 189.008 125.745L187.647 119.341H197.52C212.25 119.341 224.19 107.4 224.19 92.6706C224.19 77.9408 212.25 66 197.52 66H114.671Z" fill="#146BD1"/>
<path d="M138.196 88.0938H131.974C131.861 87.2888 131.629 86.5739 131.278 85.9489C130.928 85.3144 130.478 84.7746 129.929 84.3295C129.38 83.8845 128.745 83.5436 128.026 83.3068C127.315 83.0701 126.544 82.9517 125.71 82.9517C124.205 82.9517 122.893 83.3258 121.776 84.0739C120.658 84.8125 119.792 85.892 119.176 87.3125C118.561 88.7235 118.253 90.4375 118.253 92.4545C118.253 94.5284 118.561 96.2708 119.176 97.6818C119.801 99.0928 120.672 100.158 121.79 100.878C122.907 101.598 124.2 101.957 125.668 101.957C126.491 101.957 127.254 101.848 127.955 101.631C128.665 101.413 129.295 101.096 129.844 100.679C130.393 100.253 130.848 99.7367 131.207 99.1307C131.577 98.5246 131.832 97.8333 131.974 97.0568L138.196 97.0852C138.035 98.4205 137.633 99.7083 136.989 100.949C136.354 102.18 135.497 103.283 134.418 104.259C133.348 105.224 132.069 105.991 130.582 106.56C129.105 107.118 127.434 107.398 125.568 107.398C122.973 107.398 120.653 106.811 118.608 105.636C116.572 104.462 114.962 102.762 113.778 100.537C112.604 98.3116 112.017 95.6174 112.017 92.4545C112.017 89.2822 112.614 86.5833 113.807 84.358C115 82.1326 116.619 80.4375 118.665 79.2727C120.71 78.0985 123.011 77.5114 125.568 77.5114C127.254 77.5114 128.816 77.7481 130.256 78.2216C131.705 78.6951 132.988 79.3864 134.105 80.2955C135.223 81.1951 136.132 82.2983 136.832 83.6051C137.543 84.9119 137.997 86.4081 138.196 88.0938ZM148.714 107.412C147.322 107.412 146.082 107.17 144.993 106.688C143.904 106.195 143.042 105.471 142.408 104.514C141.783 103.548 141.47 102.346 141.47 100.906C141.47 99.6941 141.693 98.6761 142.138 97.8523C142.583 97.0284 143.189 96.3655 143.956 95.8636C144.723 95.3617 145.594 94.983 146.57 94.7273C147.554 94.4716 148.587 94.2917 149.666 94.1875C150.935 94.0549 151.958 93.9318 152.734 93.8182C153.511 93.6951 154.074 93.5152 154.425 93.2784C154.775 93.0417 154.95 92.6913 154.95 92.2273V92.142C154.95 91.2424 154.666 90.5464 154.098 90.054C153.539 89.5616 152.744 89.3153 151.712 89.3153C150.623 89.3153 149.756 89.5568 149.112 90.0398C148.468 90.5133 148.042 91.1098 147.834 91.8295L142.237 91.375C142.521 90.0492 143.08 88.9034 143.913 87.9375C144.747 86.9621 145.821 86.214 147.138 85.6932C148.464 85.1629 149.998 84.8977 151.74 84.8977C152.952 84.8977 154.112 85.0398 155.22 85.3239C156.338 85.608 157.327 86.0483 158.189 86.6449C159.06 87.2415 159.747 88.0085 160.249 88.946C160.75 89.8741 161.001 90.9867 161.001 92.2841V107H155.263V103.974H155.092C154.742 104.656 154.273 105.258 153.686 105.778C153.099 106.29 152.393 106.692 151.57 106.986C150.746 107.27 149.794 107.412 148.714 107.412ZM150.447 103.236C151.338 103.236 152.124 103.061 152.805 102.71C153.487 102.35 154.022 101.867 154.411 101.261C154.799 100.655 154.993 99.9687 154.993 99.2017V96.8864C154.804 97.0095 154.543 97.1231 154.212 97.2273C153.89 97.322 153.525 97.4119 153.118 97.4972C152.711 97.5729 152.304 97.6439 151.896 97.7102C151.489 97.767 151.12 97.8191 150.788 97.8665C150.078 97.9706 149.458 98.1364 148.928 98.3636C148.397 98.5909 147.985 98.8987 147.692 99.2869C147.398 99.6657 147.251 100.139 147.251 100.707C147.251 101.531 147.55 102.161 148.146 102.597C148.752 103.023 149.519 103.236 150.447 103.236ZM165.696 107V85.1818H171.562V88.9886H171.79C172.188 87.6345 172.855 86.6117 173.793 85.9205C174.73 85.2197 175.81 84.8693 177.031 84.8693C177.334 84.8693 177.661 84.8883 178.011 84.9261C178.362 84.964 178.67 85.0161 178.935 85.0824V90.4517C178.651 90.3665 178.258 90.2907 177.756 90.2244C177.254 90.1581 176.795 90.125 176.378 90.125C175.488 90.125 174.692 90.3191 173.991 90.7074C173.3 91.0862 172.751 91.6165 172.344 92.2983C171.946 92.9801 171.747 93.7661 171.747 94.6562V107H165.696ZM190.991 107.426C188.746 107.426 186.815 106.972 185.195 106.062C183.585 105.144 182.345 103.847 181.474 102.17C180.603 100.485 180.167 98.4915 180.167 96.1903C180.167 93.946 180.603 91.9763 181.474 90.2812C182.345 88.5862 183.571 87.2652 185.153 86.3182C186.744 85.3712 188.609 84.8977 190.749 84.8977C192.189 84.8977 193.529 85.1297 194.769 85.5938C196.019 86.0483 197.108 86.7348 198.036 87.6534C198.974 88.572 199.703 89.7273 200.224 91.1193C200.745 92.5019 201.005 94.1212 201.005 95.9773V97.6392H182.582V93.8892H195.309C195.309 93.018 195.12 92.2462 194.741 91.5739C194.362 90.9015 193.836 90.3759 193.164 89.9972C192.501 89.6089 191.729 89.4148 190.849 89.4148C189.93 89.4148 189.116 89.6278 188.406 90.054C187.705 90.4706 187.156 91.0341 186.758 91.7443C186.36 92.4451 186.156 93.2263 186.147 94.0881V97.6534C186.147 98.733 186.346 99.6657 186.744 100.452C187.151 101.238 187.724 101.844 188.462 102.27C189.201 102.696 190.077 102.909 191.09 102.909C191.763 102.909 192.378 102.814 192.937 102.625C193.496 102.436 193.974 102.152 194.371 101.773C194.769 101.394 195.072 100.93 195.281 100.381L200.877 100.75C200.593 102.095 200.011 103.269 199.13 104.273C198.259 105.267 197.132 106.044 195.749 106.602C194.376 107.152 192.79 107.426 190.991 107.426Z" fill="white"/>
</svg>
